# xmcd CD database file
#
# Track frame offsets:
#	150
#	19607
#	39947
#	62602
#	85532
#	104205
#	125847
#	147920
#
# Disc length: 2454 seconds
#
# Revision: 2
# Processed by: cddbd v1.5.2PL0 Copyright (c) Steve Scherf et al.
# Submitted via: CDex 1.81
#
DISCID=67099408
DTITLE=Dr. John - Such A Night
DYEAR=1988
DGENRE=Blues
TTITLE0=The Honeydripper
TTITLE1=Georgia On My Mind
TTITLE2=Tipitina
TTITLE3=Life
TTITLE4=I Got Mine
TTITLE5=Jungo Partner
TTITLE6=Right Place, Wrong Time
TTITLE7=Such A Night
EXTD=YEAR: 1988
EXTT0=
EXTT1=
EXTT2=
EXTT3=
EXTT4=
EXTT5=
EXTT6=
EXTT7=
PLAYORDER=
